<svg xmlns="http://www.w3.org/2000/svg" width="96" height="96" viewBox="0 0 96 96" fill="none">
  <rect width="96" height="96" rx="18" fill="#0F172A"/>
  <path d="M28 18C32 18 35 21 35 25V38H21V25C21 21 24 18 28 18Z" fill="#E2E8F0"/>
  <path d="M48 14C52 14 55 17 55 21V38H41V21C41 17 44 14 48 14Z" fill="#E2E8F0"/>
  <path d="M68 18C72 18 75 21 75 25V38H61V25C61 21 64 18 68 18Z" fill="#E2E8F0"/>
  <path d="M48 46C63 46 74 57 74 71V76H22V71C22 57 33 46 48 46Z" fill="#93C5FD"/>
  <path d="M38 58C41.9 58 45 61.1 45 65C45 68.9 41.9 72 38 72C34.1 72 31 68.9 31 65C31 61.1 34.1 58 38 58Z" fill="#0F172A"/>
  <path d="M58 58C61.9 58 65 61.1 65 65C65 68.9 61.9 72 58 72C54.1 72 51 68.9 51 65C51 61.1 54.1 58 58 58Z" fill="#0F172A"/>
</svg>
