<svg width="384" height="144" viewBox="0 0 384 144" fill="none" xmlns="http://www.w3.org/2000/svg">
  <defs>
    <linearGradient id="bg" x1="26" y1="18" x2="358" y2="126" gradientUnits="userSpaceOnUse">
      <stop stop-color="#F2F0EC"/>
      <stop offset="1" stop-color="#D9D4CC"/>
    </linearGradient>
    <linearGradient id="plate" x1="40" y1="36" x2="344" y2="108" gradientUnits="userSpaceOnUse">
      <stop stop-color="#F8F6F2"/>
      <stop offset="1" stop-color="#E7E1D8"/>
    </linearGradient>
    <filter id="shadow" x="0" y="0" width="384" height="144" filterUnits="userSpaceOnUse" color-interpolation-filters="sRGB">
      <feDropShadow dx="0" dy="10" stdDeviation="10" flood-color="#81776C" flood-opacity="0.22"/>
    </filter>
  </defs>

  <g filter="url(#shadow)">
    <rect x="10" y="10" width="364" height="124" rx="28" fill="url(#bg)"/>
    <rect x="24" y="24" width="336" height="96" rx="22" fill="url(#plate)" stroke="#CFC7BC" stroke-width="1.5"/>
  </g>

  <g aria-label="BBClaw">
    <text x="130" y="83" text-anchor="middle" fill="#5E544D" font-family="Avenir Next, Trebuchet MS, Verdana, sans-serif" font-size="42" font-weight="900" letter-spacing="-1.4" stroke="#F9F6F1" stroke-width="6" paint-order="stroke">
      BBClaw
    </text>
    <text x="130" y="83" text-anchor="middle" fill="#5E544D" font-family="Avenir Next, Trebuchet MS, Verdana, sans-serif" font-size="42" font-weight="900" letter-spacing="-1.4">
      BBClaw
    </text>
  </g>

  <g transform="translate(250 43)" stroke="#6E6259" stroke-width="5" stroke-linecap="round" stroke-linejoin="round" fill="none">
    <path d="M20 31C20 19 28 10 39 8"/>
    <path d="M29 23C35 12 46 6 57 7"/>
    <path d="M22 38C30 39 36 45 37 53"/>
    <circle cx="21" cy="34" r="7.5" fill="#6E6259" stroke="none"/>
    <path d="M43 17C48 11 55 8 61 10"/>
    <path d="M39 48C44 50 48 56 48 62"/>
  </g>
</svg>
